<mxfile host="app.diagrams.net" modified="2021-08-10T13:12:17.814Z" agent="5.0 (Macintosh; Intel Mac OS X 10_15_7) AppleWebKit/537.36 (KHTML, like Gecko) Chrome/92.0.4515.131 Safari/537.36" etag="X-Y_SUrKo-b2_47xAEvV" version="14.9.3" type="github" pages="2">
  <diagram id="8E4GlUT9K8elq8JtlMJP" name="Page-1">
    <mxGraphModel dx="1309" dy="705" grid="1" gridSize="10" guides="1" tooltips="1" connect="1" arrows="1" fold="1" page="1" pageScale="1" pageWidth="827" pageHeight="1169" math="0" shadow="0">
      <root>
        <mxCell id="0" />
        <mxCell id="1" parent="0" />
        <mxCell id="hYHdOSw4MyyeJYC3X3LN-1" style="edgeStyle=orthogonalEdgeStyle;rounded=0;orthogonalLoop=1;jettySize=auto;html=1;entryX=0.5;entryY=0;entryDx=0;entryDy=0;" parent="1" source="hYHdOSw4MyyeJYC3X3LN-4" target="hYHdOSw4MyyeJYC3X3LN-7" edge="1">
          <mxGeometry relative="1" as="geometry" />
        </mxCell>
        <mxCell id="hYHdOSw4MyyeJYC3X3LN-2" value="" style="edgeStyle=orthogonalEdgeStyle;rounded=0;orthogonalLoop=1;jettySize=auto;html=1;" parent="1" source="hYHdOSw4MyyeJYC3X3LN-4" target="hYHdOSw4MyyeJYC3X3LN-9" edge="1">
          <mxGeometry relative="1" as="geometry" />
        </mxCell>
        <mxCell id="hYHdOSw4MyyeJYC3X3LN-3" value="" style="edgeStyle=elbowEdgeStyle;rounded=0;orthogonalLoop=1;jettySize=auto;html=1;startArrow=classic;startFill=1;" parent="1" source="hYHdOSw4MyyeJYC3X3LN-4" target="hYHdOSw4MyyeJYC3X3LN-9" edge="1">
          <mxGeometry relative="1" as="geometry" />
        </mxCell>
        <mxCell id="hYHdOSw4MyyeJYC3X3LN-4" value="Linux system interface" style="rounded=0;whiteSpace=wrap;html=1;fillColor=#f5f5f5;strokeColor=#666666;gradientColor=#b3b3b3;" parent="1" vertex="1">
          <mxGeometry x="441" y="691" width="610" height="30" as="geometry" />
        </mxCell>
        <mxCell id="hYHdOSw4MyyeJYC3X3LN-5" value="" style="edgeStyle=elbowEdgeStyle;rounded=0;orthogonalLoop=1;jettySize=auto;html=1;startArrow=classic;startFill=1;" parent="1" source="hYHdOSw4MyyeJYC3X3LN-7" target="hYHdOSw4MyyeJYC3X3LN-9" edge="1">
          <mxGeometry relative="1" as="geometry" />
        </mxCell>
        <mxCell id="hYHdOSw4MyyeJYC3X3LN-6" value="" style="edgeStyle=elbowEdgeStyle;rounded=0;orthogonalLoop=1;jettySize=auto;html=1;startArrow=classic;startFill=1;" parent="1" source="hYHdOSw4MyyeJYC3X3LN-7" target="hYHdOSw4MyyeJYC3X3LN-4" edge="1">
          <mxGeometry relative="1" as="geometry" />
        </mxCell>
        <mxCell id="hYHdOSw4MyyeJYC3X3LN-7" value="&lt;span&gt;Intel based platform&lt;/span&gt;" style="rounded=0;whiteSpace=wrap;html=1;gradientColor=#b3b3b3;fillColor=#f5f5f5;strokeColor=#666666;" parent="1" vertex="1">
          <mxGeometry x="441" y="751" width="610" height="30" as="geometry" />
        </mxCell>
        <mxCell id="hYHdOSw4MyyeJYC3X3LN-8" value="" style="edgeStyle=elbowEdgeStyle;rounded=0;orthogonalLoop=1;jettySize=auto;html=1;startArrow=classic;startFill=1;" parent="1" source="hYHdOSw4MyyeJYC3X3LN-9" target="hYHdOSw4MyyeJYC3X3LN-13" edge="1">
          <mxGeometry relative="1" as="geometry" />
        </mxCell>
        <mxCell id="hYHdOSw4MyyeJYC3X3LN-9" value="&lt;span&gt;&amp;nbsp;modbus rcp/rtu&lt;/span&gt;" style="rounded=0;whiteSpace=wrap;html=1;gradientColor=#b3b3b3;fillColor=#f5f5f5;strokeColor=#666666;" parent="1" vertex="1">
          <mxGeometry x="441" y="811" width="610" height="30" as="geometry" />
        </mxCell>
        <mxCell id="hYHdOSw4MyyeJYC3X3LN-13" value="RS485 Bus" style="whiteSpace=wrap;html=1;rounded=0;gradientColor=#b3b3b3;fillColor=#f5f5f5;strokeColor=#666666;" parent="1" vertex="1">
          <mxGeometry x="821" y="871" width="120" height="25" as="geometry" />
        </mxCell>
        <mxCell id="hYHdOSw4MyyeJYC3X3LN-14" style="edgeStyle=elbowEdgeStyle;rounded=0;orthogonalLoop=1;jettySize=auto;html=1;exitX=0.5;exitY=1;exitDx=0;exitDy=0;startArrow=classic;startFill=1;" parent="1" source="hYHdOSw4MyyeJYC3X3LN-13" target="hYHdOSw4MyyeJYC3X3LN-13" edge="1">
          <mxGeometry relative="1" as="geometry" />
        </mxCell>
        <mxCell id="hYHdOSw4MyyeJYC3X3LN-16" value="" style="edgeStyle=elbowEdgeStyle;rounded=0;orthogonalLoop=1;jettySize=auto;html=1;startArrow=classic;startFill=1;" parent="1" source="hYHdOSw4MyyeJYC3X3LN-17" target="hYHdOSw4MyyeJYC3X3LN-13" edge="1">
          <mxGeometry relative="1" as="geometry" />
        </mxCell>
        <mxCell id="hYHdOSw4MyyeJYC3X3LN-17" value="&lt;span&gt;temp sensor&lt;/span&gt;" style="whiteSpace=wrap;html=1;rounded=0;gradientColor=#b3b3b3;fillColor=#f5f5f5;strokeColor=#666666;" parent="1" vertex="1">
          <mxGeometry x="810" y="921" width="160" height="30" as="geometry" />
        </mxCell>
        <mxCell id="hYHdOSw4MyyeJYC3X3LN-18" value="&lt;span&gt;Internel message bus&lt;/span&gt;" style="rounded=0;whiteSpace=wrap;html=1;gradientColor=#b3b3b3;fillColor=#f5f5f5;strokeColor=#666666;" parent="1" vertex="1">
          <mxGeometry x="600" y="341" width="451" height="30" as="geometry" />
        </mxCell>
        <mxCell id="hYHdOSw4MyyeJYC3X3LN-29" value="" style="edgeStyle=elbowEdgeStyle;rounded=0;orthogonalLoop=1;jettySize=auto;html=1;startArrow=classic;startFill=1;exitX=0.44;exitY=-0.014;exitDx=0;exitDy=0;exitPerimeter=0;" parent="1" source="hYHdOSw4MyyeJYC3X3LN-30" target="hYHdOSw4MyyeJYC3X3LN-18" edge="1">
          <mxGeometry relative="1" as="geometry">
            <mxPoint x="940" y="421" as="sourcePoint" />
            <Array as="points">
              <mxPoint x="890" y="381" />
              <mxPoint x="940" y="401" />
            </Array>
          </mxGeometry>
        </mxCell>
        <mxCell id="hYHdOSw4MyyeJYC3X3LN-30" value="" style="rounded=0;whiteSpace=wrap;html=1;fillColor=none;" parent="1" vertex="1">
          <mxGeometry x="757" y="411" width="303" height="220" as="geometry" />
        </mxCell>
        <mxCell id="hYHdOSw4MyyeJYC3X3LN-31" value="Support Services" style="swimlane;fontStyle=0;childLayout=stackLayout;horizontal=1;startSize=26;horizontalStack=0;resizeParent=1;resizeParentMax=0;resizeLast=0;collapsible=1;marginBottom=0;" parent="1" vertex="1">
          <mxGeometry x="775" y="418" width="110" height="78" as="geometry" />
        </mxCell>
        <mxCell id="hYHdOSw4MyyeJYC3X3LN-32" value="Data proxy" style="text;strokeColor=#001DBC;align=left;verticalAlign=top;spacingLeft=4;spacingRight=4;overflow=hidden;rotatable=0;points=[[0,0.5],[1,0.5]];portConstraint=eastwest;fontColor=#ffffff;fillColor=#9999FF;" parent="hYHdOSw4MyyeJYC3X3LN-31" vertex="1">
          <mxGeometry y="26" width="110" height="26" as="geometry" />
        </mxCell>
        <mxCell id="hYHdOSw4MyyeJYC3X3LN-33" value="Scheduling" style="text;strokeColor=#001DBC;align=left;verticalAlign=top;spacingLeft=4;spacingRight=4;overflow=hidden;rotatable=0;points=[[0,0.5],[1,0.5]];portConstraint=eastwest;fontColor=#ffffff;fillColor=#9999FF;" parent="hYHdOSw4MyyeJYC3X3LN-31" vertex="1">
          <mxGeometry y="52" width="110" height="26" as="geometry" />
        </mxCell>
        <mxCell id="hYHdOSw4MyyeJYC3X3LN-38" value="Device Services" style="swimlane;fontStyle=0;childLayout=stackLayout;horizontal=1;startSize=26;fillColor=none;horizontalStack=0;resizeParent=1;resizeParentMax=0;resizeLast=0;collapsible=1;marginBottom=0;" parent="1" vertex="1">
          <mxGeometry x="775" y="519" width="110" height="52" as="geometry" />
        </mxCell>
        <mxCell id="hYHdOSw4MyyeJYC3X3LN-39" value="Device-edgecomm" style="text;strokeColor=#005700;align=center;verticalAlign=top;spacingLeft=4;spacingRight=4;overflow=hidden;rotatable=0;points=[[0,0.5],[1,0.5]];portConstraint=eastwest;fontColor=#ffffff;fillColor=#006633;" parent="hYHdOSw4MyyeJYC3X3LN-38" vertex="1">
          <mxGeometry y="26" width="110" height="26" as="geometry" />
        </mxCell>
        <mxCell id="hYHdOSw4MyyeJYC3X3LN-40" value="Core Services" style="swimlane;fontStyle=0;childLayout=stackLayout;horizontal=1;startSize=26;fillColor=none;horizontalStack=0;resizeParent=1;resizeParentMax=0;resizeLast=0;collapsible=1;marginBottom=0;" parent="1" vertex="1">
          <mxGeometry x="920" y="431" width="110" height="130" as="geometry" />
        </mxCell>
        <mxCell id="hYHdOSw4MyyeJYC3X3LN-41" value="Core data" style="text;strokeColor=#001DBC;align=center;verticalAlign=top;spacingLeft=4;spacingRight=4;overflow=hidden;rotatable=0;points=[[0,0.5],[1,0.5]];portConstraint=eastwest;fontColor=#ffffff;fillColor=#9999FF;" parent="hYHdOSw4MyyeJYC3X3LN-40" vertex="1">
          <mxGeometry y="26" width="110" height="26" as="geometry" />
        </mxCell>
        <mxCell id="hYHdOSw4MyyeJYC3X3LN-42" value="Command" style="text;strokeColor=#001DBC;align=center;verticalAlign=top;spacingLeft=4;spacingRight=4;overflow=hidden;rotatable=0;points=[[0,0.5],[1,0.5]];portConstraint=eastwest;fontColor=#ffffff;fillColor=#9999FF;" parent="hYHdOSw4MyyeJYC3X3LN-40" vertex="1">
          <mxGeometry y="52" width="110" height="26" as="geometry" />
        </mxCell>
        <mxCell id="hYHdOSw4MyyeJYC3X3LN-43" value="Metadata" style="text;strokeColor=#001DBC;align=center;verticalAlign=top;spacingLeft=4;spacingRight=4;overflow=hidden;rotatable=0;points=[[0,0.5],[1,0.5]];portConstraint=eastwest;fontColor=#ffffff;fillColor=#9999FF;" parent="hYHdOSw4MyyeJYC3X3LN-40" vertex="1">
          <mxGeometry y="78" width="110" height="26" as="geometry" />
        </mxCell>
        <mxCell id="hYHdOSw4MyyeJYC3X3LN-44" value="Registry &amp; Config" style="text;strokeColor=#001DBC;align=center;verticalAlign=top;spacingLeft=4;spacingRight=4;overflow=hidden;rotatable=0;points=[[0,0.5],[1,0.5]];portConstraint=eastwest;fontColor=#ffffff;fillColor=#9999FF;" parent="hYHdOSw4MyyeJYC3X3LN-40" vertex="1">
          <mxGeometry y="104" width="110" height="26" as="geometry" />
        </mxCell>
        <mxCell id="hYHdOSw4MyyeJYC3X3LN-57" value="" style="edgeStyle=elbowEdgeStyle;rounded=0;orthogonalLoop=1;jettySize=auto;html=1;startArrow=classic;startFill=1;" parent="1" source="hYHdOSw4MyyeJYC3X3LN-58" target="hYHdOSw4MyyeJYC3X3LN-9" edge="1">
          <mxGeometry relative="1" as="geometry" />
        </mxCell>
        <mxCell id="hYHdOSw4MyyeJYC3X3LN-58" value="LAN" style="whiteSpace=wrap;html=1;rounded=0;gradientColor=#b3b3b3;fillColor=#f5f5f5;strokeColor=#666666;" parent="1" vertex="1">
          <mxGeometry x="511" y="871" width="120" height="25" as="geometry" />
        </mxCell>
        <mxCell id="hYHdOSw4MyyeJYC3X3LN-59" value="" style="edgeStyle=elbowEdgeStyle;rounded=0;orthogonalLoop=1;jettySize=auto;html=1;startArrow=classic;startFill=1;" parent="1" source="hYHdOSw4MyyeJYC3X3LN-60" target="hYHdOSw4MyyeJYC3X3LN-58" edge="1">
          <mxGeometry relative="1" as="geometry" />
        </mxCell>
        <mxCell id="hYHdOSw4MyyeJYC3X3LN-60" value="PLC1" style="whiteSpace=wrap;html=1;rounded=0;fillColor=#f5f5f5;strokeColor=#666666;gradientColor=#b3b3b3;" parent="1" vertex="1">
          <mxGeometry x="481" y="923.5" width="80" height="25" as="geometry" />
        </mxCell>
        <mxCell id="hYHdOSw4MyyeJYC3X3LN-61" value="" style="edgeStyle=elbowEdgeStyle;rounded=0;orthogonalLoop=1;jettySize=auto;html=1;startArrow=classic;startFill=1;" parent="1" source="hYHdOSw4MyyeJYC3X3LN-62" target="hYHdOSw4MyyeJYC3X3LN-58" edge="1">
          <mxGeometry relative="1" as="geometry" />
        </mxCell>
        <mxCell id="hYHdOSw4MyyeJYC3X3LN-62" value="PLCn" style="whiteSpace=wrap;html=1;rounded=0;fillColor=#f5f5f5;strokeColor=#666666;gradientColor=#b3b3b3;" parent="1" vertex="1">
          <mxGeometry x="570" y="923.5" width="80" height="25" as="geometry" />
        </mxCell>
        <mxCell id="hYHdOSw4MyyeJYC3X3LN-63" value="" style="edgeStyle=elbowEdgeStyle;rounded=0;orthogonalLoop=1;jettySize=auto;html=1;startArrow=classic;startFill=1;shape=flexArrow;" parent="1" source="hYHdOSw4MyyeJYC3X3LN-64" target="hYHdOSw4MyyeJYC3X3LN-18" edge="1">
          <mxGeometry relative="1" as="geometry" />
        </mxCell>
        <mxCell id="hYHdOSw4MyyeJYC3X3LN-64" value="" style="ellipse;shape=cloud;whiteSpace=wrap;html=1;fillColor=none;" parent="1" vertex="1">
          <mxGeometry x="741" y="50" width="380" height="222" as="geometry" />
        </mxCell>
        <mxCell id="hYHdOSw4MyyeJYC3X3LN-65" value="ASP Platform" style="swimlane;fontStyle=0;childLayout=stackLayout;horizontal=1;startSize=26;horizontalStack=0;resizeParent=1;resizeParentMax=0;resizeLast=0;collapsible=1;marginBottom=0;" parent="1" vertex="1">
          <mxGeometry x="855" y="96" width="156" height="104" as="geometry" />
        </mxCell>
        <mxCell id="hYHdOSw4MyyeJYC3X3LN-66" value="Data query" style="text;strokeColor=#005700;align=left;verticalAlign=top;spacingLeft=4;spacingRight=4;overflow=hidden;rotatable=0;points=[[0,0.5],[1,0.5]];portConstraint=eastwest;fontColor=#ffffff;fillColor=#9999FF;" parent="hYHdOSw4MyyeJYC3X3LN-65" vertex="1">
          <mxGeometry y="26" width="156" height="26" as="geometry" />
        </mxCell>
        <mxCell id="hYHdOSw4MyyeJYC3X3LN-67" value="Data validation" style="text;strokeColor=#005700;align=left;verticalAlign=top;spacingLeft=4;spacingRight=4;overflow=hidden;rotatable=0;points=[[0,0.5],[1,0.5]];portConstraint=eastwest;fontColor=#ffffff;fillColor=#9999FF;" parent="hYHdOSw4MyyeJYC3X3LN-65" vertex="1">
          <mxGeometry y="52" width="156" height="26" as="geometry" />
        </mxCell>
        <mxCell id="hYHdOSw4MyyeJYC3X3LN-68" value="Device Management " style="text;strokeColor=#005700;align=left;verticalAlign=top;spacingLeft=4;spacingRight=4;overflow=hidden;rotatable=0;points=[[0,0.5],[1,0.5]];portConstraint=eastwest;fontColor=#ffffff;fillColor=#9999FF;" parent="hYHdOSw4MyyeJYC3X3LN-65" vertex="1">
          <mxGeometry y="78" width="156" height="26" as="geometry" />
        </mxCell>
        <mxCell id="hYHdOSw4MyyeJYC3X3LN-71" value="Block chain" style="swimlane;fontStyle=0;childLayout=stackLayout;horizontal=1;startSize=26;horizontalStack=0;resizeParent=1;resizeParentMax=0;resizeLast=0;collapsible=1;marginBottom=0;" parent="1" vertex="1">
          <mxGeometry x="570" y="431" width="150" height="52" as="geometry" />
        </mxCell>
        <mxCell id="hYHdOSw4MyyeJYC3X3LN-72" value="Distributed data storage " style="text;strokeColor=#005700;fillColor=#008a00;align=left;verticalAlign=top;spacingLeft=4;spacingRight=4;overflow=hidden;rotatable=0;points=[[0,0.5],[1,0.5]];portConstraint=eastwest;fontColor=#ffffff;" parent="hYHdOSw4MyyeJYC3X3LN-71" vertex="1">
          <mxGeometry y="26" width="150" height="26" as="geometry" />
        </mxCell>
        <mxCell id="hYHdOSw4MyyeJYC3X3LN-73" value="" style="endArrow=classic;startArrow=classic;html=1;" parent="1" edge="1">
          <mxGeometry width="50" height="50" relative="1" as="geometry">
            <mxPoint x="720" y="471" as="sourcePoint" />
            <mxPoint x="755" y="470" as="targetPoint" />
          </mxGeometry>
        </mxCell>
        <mxCell id="hYHdOSw4MyyeJYC3X3LN-74" value="&lt;h2&gt;&lt;b&gt;&lt;font color=&quot;#0000cc&quot;&gt;edgeX&lt;/font&gt;&lt;/b&gt;&lt;/h2&gt;" style="text;html=1;strokeColor=none;fillColor=none;align=center;verticalAlign=middle;whiteSpace=wrap;rounded=0;" parent="1" vertex="1">
          <mxGeometry x="775" y="578" width="59" height="35.5" as="geometry" />
        </mxCell>
        <mxCell id="hYHdOSw4MyyeJYC3X3LN-76" value="transaction" style="text;strokeColor=#005700;fillColor=#008a00;align=left;verticalAlign=top;spacingLeft=4;spacingRight=4;overflow=hidden;rotatable=0;points=[[0,0.5],[1,0.5]];portConstraint=eastwest;fontColor=#FFFFFF;" parent="1" vertex="1">
          <mxGeometry x="570" y="483" width="150" height="26" as="geometry" />
        </mxCell>
        <mxCell id="hYHdOSw4MyyeJYC3X3LN-77" value="" style="endArrow=classic;startArrow=classic;html=1;fontColor=#FFFFFF;entryX=0.44;entryY=1.007;entryDx=0;entryDy=0;entryPerimeter=0;" parent="1" target="hYHdOSw4MyyeJYC3X3LN-30" edge="1">
          <mxGeometry width="50" height="50" relative="1" as="geometry">
            <mxPoint x="890" y="689" as="sourcePoint" />
            <mxPoint x="890" y="641" as="targetPoint" />
          </mxGeometry>
        </mxCell>
        <mxCell id="hYHdOSw4MyyeJYC3X3LN-78" value="" style="endArrow=classic;startArrow=classic;html=1;fontColor=#FFFFFF;exitX=0.5;exitY=0;exitDx=0;exitDy=0;" parent="1" source="hYHdOSw4MyyeJYC3X3LN-71" edge="1">
          <mxGeometry width="50" height="50" relative="1" as="geometry">
            <mxPoint x="559" y="421" as="sourcePoint" />
            <mxPoint x="645" y="373" as="targetPoint" />
          </mxGeometry>
        </mxCell>
        <mxCell id="hYHdOSw4MyyeJYC3X3LN-85" value="&lt;h1 class=&quot;title-article&quot; id=&quot;articleContentId&quot; style=&quot;box-sizing: border-box ; outline: 0px ; margin: 0px ; padding: 0px ; font-weight: 600 ; font-family: &amp;#34;pingfang sc&amp;#34; , &amp;#34;microsoft yahei&amp;#34; , &amp;#34;simhei&amp;#34; , &amp;#34;arial&amp;#34; , &amp;#34;simsun&amp;#34; ; font-size: 28px ; overflow-wrap: break-word ; word-break: break-all ; font-style: normal ; letter-spacing: normal ; text-indent: 0px ; text-transform: none ; word-spacing: 0px&quot;&gt;&lt;font style=&quot;background-color: rgb(191 , 191 , 191)&quot;&gt;baetyl&lt;/font&gt;&lt;/h1&gt;" style="rounded=1;whiteSpace=wrap;html=1;fontColor=#FFFFFF;rotation=-90;strokeColor=#A8A8A8;fillColor=#BFBFBF;" parent="1" vertex="1">
          <mxGeometry x="190" y="350.5" width="510" height="60.5" as="geometry" />
        </mxCell>
        <mxCell id="hYHdOSw4MyyeJYC3X3LN-87" value="" style="shape=flexArrow;endArrow=classic;startArrow=classic;html=1;fontColor=#FFFFFF;width=3.333333333333333;endSize=6.133333333333333;startWidth=4.074074074074074;startSize=6.133333333333333;endWidth=4.074074074074074;" parent="1" edge="1">
          <mxGeometry width="100" height="100" relative="1" as="geometry">
            <mxPoint x="477" y="190" as="sourcePoint" />
            <mxPoint x="757" y="190" as="targetPoint" />
          </mxGeometry>
        </mxCell>
        <mxCell id="hYHdOSw4MyyeJYC3X3LN-91" value="&lt;font color=&quot;#000099&quot;&gt;deployment&lt;/font&gt;" style="text;html=1;align=center;verticalAlign=middle;resizable=0;points=[];autosize=1;strokeColor=none;fontColor=#FFFFFF;" parent="1" vertex="1">
          <mxGeometry x="580" y="160" width="80" height="20" as="geometry" />
        </mxCell>
        <mxCell id="hYHdOSw4MyyeJYC3X3LN-92" value="" style="shape=flexArrow;endArrow=classic;startArrow=classic;html=1;fontColor=#FFFFFF;width=3.333333333333333;endSize=6.133333333333333;startWidth=4.074074074074074;startSize=6.133333333333333;endWidth=4.074074074074074;" parent="1" edge="1">
          <mxGeometry width="100" height="100" relative="1" as="geometry">
            <mxPoint x="471" y="480" as="sourcePoint" />
            <mxPoint x="571" y="480" as="targetPoint" />
            <Array as="points">
              <mxPoint x="511" y="480" />
            </Array>
          </mxGeometry>
        </mxCell>
        <mxCell id="hYHdOSw4MyyeJYC3X3LN-93" value="" style="shape=flexArrow;endArrow=classic;startArrow=classic;html=1;fontColor=#FFFFFF;width=3.333333333333333;endSize=6.133333333333333;startWidth=4.074074074074074;startSize=6.133333333333333;endWidth=4.074074074074074;" parent="1" edge="1">
          <mxGeometry width="100" height="100" relative="1" as="geometry">
            <mxPoint x="477" y="613.5" as="sourcePoint" />
            <mxPoint x="757" y="613.5" as="targetPoint" />
          </mxGeometry>
        </mxCell>
        <mxCell id="hYHdOSw4MyyeJYC3X3LN-95" value="&lt;font color=&quot;#000099&quot;&gt;deployment&lt;/font&gt;" style="text;html=1;align=center;verticalAlign=middle;resizable=0;points=[];autosize=1;strokeColor=none;fontColor=#FFFFFF;" parent="1" vertex="1">
          <mxGeometry x="490" y="447" width="80" height="20" as="geometry" />
        </mxCell>
        <mxCell id="hYHdOSw4MyyeJYC3X3LN-96" value="&lt;font color=&quot;#000099&quot;&gt;deployment&lt;/font&gt;" style="text;html=1;align=center;verticalAlign=middle;resizable=0;points=[];autosize=1;strokeColor=none;fontColor=#FFFFFF;" parent="1" vertex="1">
          <mxGeometry x="561" y="578" width="80" height="20" as="geometry" />
        </mxCell>
      </root>
    </mxGraphModel>
  </diagram>
  <diagram name="Page-2" id="U7SS_m7aN7LaXhD4V-S_">
    <mxGraphModel dx="1309" dy="705" grid="1" gridSize="10" guides="1" tooltips="1" connect="1" arrows="1" fold="1" page="1" pageScale="1" pageWidth="827" pageHeight="1169" math="0" shadow="0">
      <root>
        <mxCell id="kHHXSgDehvXODwyQlgzq-0" />
        <mxCell id="kHHXSgDehvXODwyQlgzq-1" parent="kHHXSgDehvXODwyQlgzq-0" />
      </root>
    </mxGraphModel>
  </diagram>
</mxfile>
